<svg xmlns="http://www.w3.org/2000/svg" viewBox="0 0 24 24">
  <path fill="white" d="M12 2C6.48 2 2 6.58 2 12.26c0 4.54 2.87 8.39 6.84 9.75.5.09.68-.22.68-.49
  0-.24-.01-.87-.01-1.7-2.78.62-3.37-1.36-3.37-1.36-.45-1.18-1.11-1.49-1.11-1.49
  -.91-.64.07-.63.07-.63 1.01.07 1.54 1.06 1.54 1.06.9 1.57 2.36 1.12 2.94.86
  .09-.67.35-1.12.64-1.38-2.22-.26-4.56-1.13-4.56-5.04 0-1.11.39-2.02
  1.03-2.73-.1-.26-.45-1.31.1-2.73 0 0 .84-.27 2.75 1.03A9.38 9.38 0 0112 6.8
  c.85 0 1.7.12 2.5.36 1.91-1.3 2.75-1.03 2.75-1.03.55 1.42.2 2.47.1 2.73
  .64.71 1.03 1.62 1.03 2.73 0 3.92-2.34 4.77-4.57 5.02.36.32.68.95.68 1.92
  0 1.39-.01 2.51-.01 2.85 0 .27.18.59.69.49A10.02 10.02 0 0022 12.26C22 6.58 17.52 2 12 2z"/>
</svg>

